# xmcd
#
# Track frame offsets: 
#        150
#        13140
#        28274
#        42295
#        57606
#        72224
#        86682
#        100469
#        112075
#        124151
#        135588
#        148133
#        161051
#        174260
#        187166
#        205050
#        224860
#        249736
#        271261
#        297768
#        316270
#        339288
#
# Disc length: 4741 seconds
#
# Revision: 1
# Processed by: cddbd v1.5.2PL0 Copyright (c) Steve Scherf et al.
# Submitted via: ExactAudioCopy v0.99pb4
#
DISCID=60128316
DTITLE=Ray Charles - 17 Original Albums [CD1]
DYEAR=2015
DGENRE=Blues
TTITLE0=Ain't That Love [Charles] 7''b to I Want To Know Atlantic 45-1
TTITLE0=124 1957
TTITLE1=Drown in My Own Tears {Glover} 7''a Atlantic 45-1085 [Ray Char
TTITLE1=les And His Band] 1956-01
TTITLE2=Come Back Baby [Charles] 7''b Atlantic 45-1050 [Ray Charles An
TTITLE2=d His Band-Come Back] 1954X
TTITLE3=Sinner's Prayer [Fulson] 7''b to It Should've Been Me Atlantic
TTITLE3=45-1021 1953-05-17
TTITLE4=Funny (But I Still Love You) {Charles} 7''b Atlantic 45-999 [R
TTITLE4=ay Charles And His Orchestra] 1953-06-19
TTITLE5=Losing Hand [Calhoun] 7''a Atlantic 45-1037 [Ray Charles And H
TTITLE5=is Orchestra] 1954
TTITLE6=A Fool for You [Charles] 7''a Atlantic 45-1063 [Ray Charles An
TTITLE6=d His Band] 1955
TTITLE7=Hallelujah I Love Her So [Charles] 7''a Atlantic 45-1096 [b is
TTITLE7=What Would I Do Without You] 1956-01-16
TTITLE8=Mess Around [Ertegun as Nugetre]) 7''a Atlantic 45-999 [Ray Ch
TTITLE8=arles And His Orchestra] 1953-06-19
TTITLE9=This Little Girl of Mine [Charles] 7''b Atlantic 45-1063 [Ray 
TTITLE9=Charles And His Band] 1955
TTITLE10=Mary Ann [Charles] 7''b Atlantic 45-1085 [Ray Charles And His
TTITLE10=Band] 1956-01
TTITLE11=Greenbacks [Richard] 7''b to Blackjack Atlantic 45-1076 [Ray 
TTITLE11=Charles And His Band] 1955-10
TTITLE12=Don't You Know [Charles] 7''b Atlantic 45-1037 [Ray Charles A
TTITLE12=nd His Orchestra] 1954
TTITLE13=I['ve] Got a Woman [Charles] 7''a Atlantic 45-1050 [Ray Charl
TTITLE13=es And His Band] 1954X
TTITLE14=The Ray (instrumental) [Jones]
TTITLE15=My Melancholy Baby (instrumental) [Burnett_Norton_Bragman]
TTITLE16=Black Coffee (instrumental) [Webster Burke]
TTITLE17=There's No You (instrumental) [Adair_Hooper]
TTITLE18=Doodlin' (instrumental) [Silver] 7''a The Great Ray Charles A
TTITLE18=tlantic EP 597 1957
TTITLE19=Sweet Sixteen Bars (instrumental) [Charles] 7''b The Great Ra
TTITLE19=y Charles Atlantic EP 597 1957
TTITLE20=I Surrender Dear (instrumental) [Clifford_Barris]
TTITLE21=Undecided (instrumental) [Shavers_Robins]
EXTD=
EXTT0=
EXTT1=
EXTT2=
EXTT3=
EXTT4=
EXTT5=
EXTT6=
EXTT7=
EXTT8=
EXTT9=
EXTT10=
EXTT11=
EXTT12=
EXTT13=
EXTT14=
EXTT15=
EXTT16=
EXTT17=
EXTT18=
EXTT19=
EXTT20=
EXTT21=
PLAYORDER=
